<svg id="Capa_1" enable-background="new 0 0 510 510" height="512" viewBox="0 0 510 510" width="512" xmlns="http://www.w3.org/2000/svg"><path d="m437.906 87.394-83-83c-2.767-2.769-6.601-4.394-10.606-4.394h-261.6c-8.284 0-15 6.716-15 15v480c0 8.284 6.716 15 15 15h344.6c8.284 0 15-6.716 15-15v-397c0-3.815-1.501-7.712-4.394-10.606zm-78.606-36.181c19.176 19.176 11.842 11.842 31.787 31.787h-31.787zm-261.6 428.787v-450h231.6v68c0 8.284 6.716 15 15 15h68v367z"/><path d="m236.333 282.317h-77.333c-8.284 0-15 6.716-15 15s6.716 15 15 15h77.333c8.284 0 15-6.716 15-15s-6.716-15-15-15z"/><path d="m340.394 259.711-20.727 20.727-8.061-8.06c-5.857-5.858-15.355-5.858-21.213 0s-5.858 15.355 0 21.213l18.667 18.667c5.852 5.854 15.356 5.857 21.213 0l31.333-31.333c5.858-5.858 5.858-15.355 0-21.213-5.857-5.859-15.355-5.859-21.212-.001z"/><path d="m236.333 384.87h-77.333c-8.284 0-15 6.716-15 15s6.716 15 15 15h77.333c8.284 0 15-6.716 15-15s-6.716-15-15-15z"/><path d="m340.394 373.597-20.727 20.727-8.061-8.06c-5.857-5.858-15.355-5.858-21.213 0s-5.858 15.355 0 21.213l18.667 18.667c5.854 5.855 15.357 5.857 21.213 0l31.333-31.333c5.858-5.858 5.858-15.355 0-21.213-5.857-5.859-15.355-5.859-21.212-.001z"/><path d="m197.749 217.668c7.552 3.413 16.435.058 19.847-7.491l11.187-24.751h52.435l11.187 24.751c3.415 7.557 12.307 10.901 19.847 7.491 7.549-3.412 10.903-12.297 7.491-19.846l-51.073-113c-5.303-11.731-22.027-11.749-27.338 0l-51.073 113c-3.413 7.549-.059 16.435 7.49 19.846zm57.251-90.248 12.658 28.006h-25.316z"/></svg>